{
  "asset": {
    "version": "2.0",
    "generator": "THREE.GLTFExporter"
  },
  "scenes": [
    {
      "nodes": [
        0
      ]
    }
  ],
  "scene": 0,
  "nodes": [
    {
      "children": [
        16
      ],
      "matrix": [
        0.01,
        0,
        0,
        0,
        0,
        0.01,
        0,
        0,
        0,
        0,
        0.01,
        0,
        0,
        0,
        0,
        1
      ]
    },
    {
      "matrix": [
        -3.796898317920812e-15,
        -2.5564772809993033e-16,
        -1.1468629990646253,
        0,
        0.13156421675330854,
        0.74613775058531,
        2.6705606313402434e-16,
        0,
        0.984807753012187,
        -0.17364817766692026,
        -3.187036634807455e-15,
        0,
        54.369386408059675,
        -22.33058711947287,
        -1.5132027502870076,
        0.9999999999999997
      ],
      "name": "Cube 62",
      "mesh": 0
    },
    {
      "matrix": [
        -3.3843360284489535e-15,
        -4.592428368225825e-15,
        -1.1740348746365845,
        0,
        -0.34244259990129133,
        -0.7343705253656072,
        5.4050777596454846e-15,
        0,
        -0.8552397940843012,
        0.39880486554041206,
        1.7819325632444264e-15,
        0,
        48.3951237713775,
        2.922620619820379,
        -111.55040895543999,
        1
      ],
      "name": "Cube 63",
      "mesh": 1
    },
    {
      "matrix": [
        -2.0808954789145325e-15,
        -2.8979556538310772e-15,
        -1.1740348746365972,
        0,
        -0.34244259990129033,
        -0.7343705253656049,
        4.123200912983341e-15,
        0,
        -0.8552397940842996,
        0.3988048655404115,
        1.9707681093535863e-15,
        0,
        48.39512377137757,
        2.922620619820421,
        -0.04176392548012586,
        1
      ],
      "name": "Cube 63",
      "mesh": 2
    },
    {
      "matrix": [
        -1.903581597984285e-15,
        -4.096492023112143e-15,
        -1.1740348746366103,
        0,
        -0.3424425999012908,
        -0.734370525365607,
        4.749749804742963e-15,
        0,
        -0.8552397940843006,
        0.3988048655404115,
        4.029703587262222e-16,
        0,
        48.39512377137768,
        2.9226206198204783,
        111.4668766257657,
        1
      ],
      "name": "Cube 63",
      "mesh": 3
    },
    {
      "matrix": [
        -1.0795207688100196e-15,
        8.724019374564808e-16,
        -1.174034874636584,
        0,
        -0.8102882220252922,
        -3.4035867630416813e-16,
        2.0341209752219147e-15,
        0,
        -6.336598639937848e-16,
        1.3741357704068522,
        1.5004315910076222e-15,
        0,
        -19.54303691478686,
        -32.84334572824688,
        -111.55040895544016,
        1
      ],
      "name": "Cube 60",
      "mesh": 4
    },
    {
      "matrix": [
        -1.079520768810033e-15,
        8.724019374564913e-16,
        -1.174034874636598,
        0,
        -0.8102882220252923,
        -3.403586763041682e-16,
        2.034120975221915e-15,
        0,
        -6.336598639937849e-16,
        1.3741357704068522,
        1.5004315910076226e-15,
        0,
        -19.543036914786764,
        -32.84334572824697,
        -0.04176392548038166,
        1
      ],
      "name": "Cube 59",
      "mesh": 5
    },
    {
      "matrix": [
        -1.0795207688100448e-15,
        -2.9106168508085256e-16,
        -1.1740348746366105,
        0,
        -0.8102882220252925,
        -7.047848410165012e-17,
        2.1240810392894215e-15,
        0,
        -2.698801922025177e-16,
        1.3741357704068522,
        3.466008405139117e-16,
        0,
        -19.54303691478668,
        -32.84334572824702,
        111.46687662576552,
        1
      ],
      "name": "Cube 58",
      "mesh": 6
    },
    {
      "matrix": [
        -1.3322676295501742e-15,
        5.551115123125726e-16,
        -0.9999999999999893,
        0,
        -1,
        -4.4408920985006257e-16,
        1.4432899320127031e-15,
        0,
        -2.220446049250314e-16,
        1.0000000000000002,
        6.661338147750939e-16,
        0,
        -7.045931305777038,
        -57.43836445405359,
        -0.0001525878907386868,
        1
      ],
      "name": "Cube 57",
      "mesh": 7
    },
    {
      "matrix": [
        2.2204460492503264e-16,
        1.2246467991473608e-16,
        -1.000000000000006,
        0,
        9.65430546153804e-33,
        1,
        1.2246467991473535e-16,
        0,
        1.000000000000006,
        -1.4997597826618664e-32,
        2.2204460492503264e-16,
        0,
        1.004705882576663e-13,
        63.650859974801044,
        4.4793038389204725,
        1
      ],
      "name": "sofa",
      "children": [
        1,
        2,
        3,
        4,
        5,
        6,
        7,
        8
      ]
    },
    {
      "matrix": [
        -0.0037091973916391183,
        0.8101588282254898,
        0.7183110786656046,
        0,
        1.0709723951756127,
        -0.10287508603681463,
        0.12155959968499072,
        0,
        0.15920509243541014,
        0.7109158041231131,
        -0.8009958481924169,
        0,
        -86.87534234048097,
        70.43751091774499,
        -21.401421057283237,
        0.9999999999999998
      ],
      "name": "Cube 72",
      "mesh": 8
    },
    {
      "matrix": [
        -0.14399808512393256,
        0.8166537222231464,
        0.6961918846772445,
        0,
        1.0662980152571728,
        0.1880171095657196,
        9.372788242738631e-16,
        0,
        -0.1208924520807105,
        0.6856151656143652,
        -0.8292519222409714,
        0,
        61.899216125410106,
        76.29174869538828,
        -18.2135527592359,
        0.9999999999999998
      ],
      "name": "Cube 71",
      "mesh": 9
    },
    {
      "matrix": [
        1,
        0,
        0,
        0,
        0,
        0.6709983538323228,
        0.7414588384760902,
        0,
        0,
        -0.7414588384760902,
        0.6709983538323228,
        0,
        0,
        -106.891684487366,
        0,
        1
      ],
      "name": "Sofa Pink",
      "children": [
        9,
        10,
        11
      ]
    },
    {
      "matrix": [
        0.3901833380171249,
        0.5397536175903561,
        -0.7459376616259147,
        0,
        -0.810421678379293,
        0.585846996418766,
        0,
        0,
        0.43700533857917995,
        0.6045240517011989,
        0.6660157693088523,
        0,
        0,
        0,
        0,
        1
      ],
      "name": "Directional Light",
      "extensions": {
        "KHR_lights_punctual": {
          "light": 0
        }
      }
    },
    {
      "matrix": [
        1,
        0,
        0,
        0,
        0,
        1,
        -6.123233995736767e-17,
        0,
        0,
        6.123233995736767e-17,
        1,
        0,
        0,
        -1.2593330571308956e-12,
        999.9999999999997,
        1
      ],
      "camera": 0
    },
    {
      "matrix": [
        1,
        0,
        0,
        0,
        0,
        1,
        0,
        0,
        0,
        0,
        1,
        0,
        0,
        1,
        0,
        1
      ],
      "name": "Default Ambient Light"
    },
    {
      "name": "Scene 1",
      "children": [
        12,
        13,
        14,
        15
      ]
    }
  ],
  "bufferViews": [
    {
      "buffer": 0,
      "byteOffset": 0,
      "byteLength": 1728,
      "target": 34962,
      "byteStride": 12
    },
    {
      "buffer": 0,
      "byteOffset": 1728,
      "byteLength": 1728,
      "target": 34962,
      "byteStride": 12
    },
    {
      "buffer": 0,
      "byteOffset": 3456,
      "byteLength": 1152,
      "target": 34962,
      "byteStride": 8
    },
    {
      "buffer": 0,
      "byteOffset": 4608,
      "byteLength": 552,
      "target": 34963
    },
    {
      "buffer": 0,
      "byteOffset": 5160,
      "byteLength": 8064,
      "target": 34962,
      "byteStride": 12
    },
    {
      "buffer": 0,
      "byteOffset": 13224,
      "byteLength": 8064,
      "target": 34962,
      "byteStride": 12
    },
    {
      "buffer": 0,
      "byteOffset": 21288,
      "byteLength": 4032,
      "target": 34963
    },
    {
      "buffer": 0,
      "byteOffset": 25320,
      "byteLength": 8064,
      "target": 34962,
      "byteStride": 12
    },
    {
      "buffer": 0,
      "byteOffset": 33384,
      "byteLength": 8064,
      "target": 34962,
      "byteStride": 12
    },
    {
      "buffer": 0,
      "byteOffset": 41448,
      "byteLength": 4032,
      "target": 34963
    },
    {
      "buffer": 0,
      "byteOffset": 45480,
      "byteLength": 8064,
      "target": 34962,
      "byteStride": 12
    },
    {
      "buffer": 0,
      "byteOffset": 53544,
      "byteLength": 8064,
      "target": 34962,
      "byteStride": 12
    },
    {
      "buffer": 0,
      "byteOffset": 61608,
      "byteLength": 4032,
      "target": 34963
    },
    {
      "buffer": 0,
      "byteOffset": 65640,
      "byteLength": 8064,
      "target": 34962,
      "byteStride": 12
    },
    {
      "buffer": 0,
      "byteOffset": 73704,
      "byteLength": 8064,
      "target": 34962,
      "byteStride": 12
    },
    {
      "buffer": 0,
      "byteOffset": 81768,
      "byteLength": 4032,
      "target": 34963
    },
    {
      "buffer": 0,
      "byteOffset": 85800,
      "byteLength": 8064,
      "target": 34962,
      "byteStride": 12
    },
    {
      "buffer": 0,
      "byteOffset": 93864,
      "byteLength": 8064,
      "target": 34962,
      "byteStride": 12
    },
    {
      "buffer": 0,
      "byteOffset": 101928,
      "byteLength": 4032,
      "target": 34963
    },
    {
      "buffer": 0,
      "byteOffset": 105960,
      "byteLength": 8064,
      "target": 34962,
      "byteStride": 12
    },
    {
      "buffer": 0,
      "byteOffset": 114024,
      "byteLength": 8064,
      "target": 34962,
      "byteStride": 12
    },
    {
      "buffer": 0,
      "byteOffset": 122088,
      "byteLength": 4032,
      "target": 34963
    },
    {
      "buffer": 0,
      "byteOffset": 126120,
      "byteLength": 14976,
      "target": 34962,
      "byteStride": 12
    },
    {
      "buffer": 0,
      "byteOffset": 141096,
      "byteLength": 14976,
      "target": 34962,
      "byteStride": 12
    },
    {
      "buffer": 0,
      "byteOffset": 156072,
      "byteLength": 7488,
      "target": 34963
    },
    {
      "buffer": 0,
      "byteOffset": 163560,
      "byteLength": 12288,
      "target": 34962,
      "byteStride": 12
    },
    {
      "buffer": 0,
      "byteOffset": 175848,
      "byteLength": 12288,
      "target": 34962,
      "byteStride": 12
    },
    {
      "buffer": 0,
      "byteOffset": 188136,
      "byteLength": 6144,
      "target": 34963
    },
    {
      "buffer": 0,
      "byteOffset": 194280,
      "byteLength": 12288,
      "target": 34962,
      "byteStride": 12
    },
    {
      "buffer": 0,
      "byteOffset": 206568,
      "byteLength": 12288,
      "target": 34962,
      "byteStride": 12
    },
    {
      "buffer": 0,
      "byteOffset": 218856,
      "byteLength": 6144,
      "target": 34963
    }
  ],
  "buffers": [
    {
      "byteLength": 225000,
      "uri": "data:application/octet-stream;base64,"
    }
  ],
  "accessors": [
    {
      "bufferView": 0,
      "componentType": 5126,
      "count": 144,
      "max": [
        153.5557098388672,
        51.9821891784668,
        10.670244216918945
      ],
      "min": [
        -153.5557098388672,
        -51.9821891784668,
        -10.670244216918945
      ],
      "type": "VEC3"
    },
    {
      "bufferView": 1,
      "componentType": 5126,
      "count": 144,
      "max": [
        1,
        1,
        1
      ],
      "min": [
        -1,
        -1,
        -1
      ],
      "type": "VEC3"
    },
    {
      "bufferView": 2,
      "componentType": 5126,
      "count": 144,
      "max": [
        1,
        1
      ],
      "min": [
        0,
        0
      ],
      "type": "VEC2"
    },
    {
      "bufferView": 3,
      "componentType": 5123,
      "count": 276,
      "max": [
        143
      ],
      "min": [
        0
      ],
      "type": "SCALAR"
    },
    {
      "bufferView": 4,
      "componentType": 5126,
      "count": 672,
      "max": [
        47.48948669433594,
        65.8741683959961,
        12.774735450744629
      ],
      "min": [
        -47.48948669433594,
        -65.8741683959961,
        -12.774735450744629
      ],
      "type": "VEC3"
    },
    {
      "bufferView": 5,
      "componentType": 5126,
      "count": 672,
      "max": [
        1,
        1,
        1
      ],
      "min": [
        -1,
        -1,
        -1
      ],
      "type": "VEC3"
    },
    {
      "bufferView": 6,
      "componentType": 5125,
      "count": 1008,
      "max": [
        671
      ],
      "min": [
        0
      ],
      "type": "SCALAR"
    },
    {
      "bufferView": 7,
      "componentType": 5126,
      "count": 672,
      "max": [
        47.48948669433594,
        65.8741683959961,
        12.774735450744629
      ],
      "min": [
        -47.48948669433594,
        -65.8741683959961,
        -12.774735450744629
      ],
      "type": "VEC3"
    },
    {
      "bufferView": 8,
      "componentType": 5126,
      "count": 672,
      "max": [
        1,
        1,
        1
      ],
      "min": [
        -1,
        -1,
        -1
      ],
      "type": "VEC3"
    },
    {
      "bufferView": 9,
      "componentType": 5125,
      "count": 1008,
      "max": [
        671
      ],
      "min": [
        0
      ],
      "type": "SCALAR"
    },
    {
      "bufferView": 10,
      "componentType": 5126,
      "count": 672,
      "max": [
        47.48948669433594,
        65.8741683959961,
        12.774735450744629
      ],
      "min": [
        -47.48948669433594,
        -65.8741683959961,
        -12.774735450744629
      ],
      "type": "VEC3"
    },
    {
      "bufferView": 11,
      "componentType": 5126,
      "count": 672,
      "max": [
        1,
        1,
        1
      ],
      "min": [
        -1,
        -1,
        -1
      ],
      "type": "VEC3"
    },
    {
      "bufferView": 12,
      "componentType": 5125,
      "count": 1008,
      "max": [
        671
      ],
      "min": [
        0
      ],
      "type": "SCALAR"
    },
    {
      "bufferView": 13,
      "componentType": 5126,
      "count": 672,
      "max": [
        47.48948669433594,
        65.8741683959961,
        12.774735450744629
      ],
      "min": [
        -47.48948669433594,
        -65.8741683959961,
        -12.774735450744629
      ],
      "type": "VEC3"
    },
    {
      "bufferView": 14,
      "componentType": 5126,
      "count": 672,
      "max": [
        1,
        1,
        1
      ],
      "min": [
        -1,
        -1,
        -1
      ],
      "type": "VEC3"
    },
    {
      "bufferView": 15,
      "componentType": 5125,
      "count": 1008,
      "max": [
        671
      ],
      "min": [
        0
      ],
      "type": "SCALAR"
    },
    {
      "bufferView": 16,
      "componentType": 5126,
      "count": 672,
      "max": [
        47.48948669433594,
        65.8741683959961,
        12.774735450744629
      ],
      "min": [
        -47.48948669433594,
        -65.8741683959961,
        -12.774735450744629
      ],
      "type": "VEC3"
    },
    {
      "bufferView": 17,
      "componentType": 5126,
      "count": 672,
      "max": [
        1,
        1,
        1
      ],
      "min": [
        -1,
        -1,
        -1
      ],
      "type": "VEC3"
    },
    {
      "bufferView": 18,
      "componentType": 5125,
      "count": 1008,
      "max": [
        671
      ],
      "min": [
        0
      ],
      "type": "SCALAR"
    },
    {
      "bufferView": 19,
      "componentType": 5126,
      "count": 672,
      "max": [
        47.48948669433594,
        65.8741683959961,
        12.774735450744629
      ],
      "min": [
        -47.48948669433594,
        -65.8741683959961,
        -12.774735450744629
      ],
      "type": "VEC3"
    },
    {
      "bufferView": 20,
      "componentType": 5126,
      "count": 672,
      "max": [
        1,
        1,
        1
      ],
      "min": [
        -1,
        -1,
        -1
      ],
      "type": "VEC3"
    },
    {
      "bufferView": 21,
      "componentType": 5125,
      "count": 1008,
      "max": [
        671
      ],
      "min": [
        0
      ],
      "type": "SCALAR"
    },
    {
      "bufferView": 22,
      "componentType": 5126,
      "count": 1248,
      "max": [
        201.29537963867188,
        65.8741683959961,
        73.3030014038086
      ],
      "min": [
        -201.29568481445312,
        -65.8741683959961,
        -7.5553483963012695
      ],
      "type": "VEC3"
    },
    {
      "bufferView": 23,
      "componentType": 5126,
      "count": 1248,
      "max": [
        0.9994962215423584,
        0.9999935626983643,
        1
      ],
      "min": [
        -0.9994961619377136,
        -0.9999935030937195,
        -1
      ],
      "type": "VEC3"
    },
    {
      "bufferView": 24,
      "componentType": 5125,
      "count": 1872,
      "max": [
        1247
      ],
      "min": [
        0
      ],
      "type": "SCALAR"
    },
    {
      "bufferView": 25,
      "componentType": 5126,
      "count": 1024,
      "max": [
        18.444149017333984,
        43.668331146240234,
        34.91315460205078
      ],
      "min": [
        -18.444149017333984,
        -43.668331146240234,
        -35.243385314941406
      ],
      "type": "VEC3"
    },
    {
      "bufferView": 26,
      "componentType": 5126,
      "count": 1024,
      "max": [
        1,
        0.999950647354126,
        0.9999998807907104
      ],
      "min": [
        -1,
        -0.999950647354126,
        -0.9998440146446228
      ],
      "type": "VEC3"
    },
    {
      "bufferView": 27,
      "componentType": 5125,
      "count": 1536,
      "max": [
        1023
      ],
      "min": [
        0
      ],
      "type": "SCALAR"
    },
    {
      "bufferView": 28,
      "componentType": 5126,
      "count": 1024,
      "max": [
        18.444149017333984,
        43.668331146240234,
        34.91315460205078
      ],
      "min": [
        -18.444149017333984,
        -43.668331146240234,
        -35.243385314941406
      ],
      "type": "VEC3"
    },
    {
      "bufferView": 29,
      "componentType": 5126,
      "count": 1024,
      "max": [
        1,
        0.999950647354126,
        0.9999998807907104
      ],
      "min": [
        -1,
        -0.999950647354126,
        -0.9998440146446228
      ],
      "type": "VEC3"
    },
    {
      "bufferView": 30,
      "componentType": 5125,
      "count": 1536,
      "max": [
        1023
      ],
      "min": [
        0
      ],
      "type": "SCALAR"
    }
  ],
  "meshes": [
    {
      "primitives": [
        {
          "mode": 4,
          "attributes": {
            "POSITION": 0,
            "NORMAL": 1,
            "TEXCOORD_0": 2
          },
          "extras": {
            "parameters": {
              "width": 307.1114244948392,
              "widthSegments": 1,
              "heightSegments": 1,
              "depthSegments": 1,
              "cornerRadius": 8,
              "cornerSegments": 2,
              "height": 103.96437941185681,
              "depth": 21.340488779024703,
              "type": "CubeGeometry"
            },
            "type": "CubeGeometry"
          },
          "indices": 3
        }
      ]
    },
    {
      "primitives": [
        {
          "mode": 4,
          "attributes": {
            "POSITION": 4,
            "NORMAL": 5
          },
          "extras": {
            "type": "SubdivGeometry",
            "parameters": {
              "width": 94.97897338867188,
              "height": 131.7483367919922,
              "depth": 25.549470901489258
            }
          },
          "indices": 6
        }
      ]
    },
    {
      "primitives": [
        {
          "mode": 4,
          "attributes": {
            "POSITION": 7,
            "NORMAL": 8
          },
          "extras": {
            "type": "SubdivGeometry",
            "parameters": {
              "width": 94.97897338867188,
              "height": 131.7483367919922,
              "depth": 25.549470901489258
            }
          },
          "indices": 9
        }
      ]
    },
    {
      "primitives": [
        {
          "mode": 4,
          "attributes": {
            "POSITION": 10,
            "NORMAL": 11
          },
          "extras": {
            "type": "SubdivGeometry",
            "parameters": {
              "width": 94.97897338867188,
              "height": 131.7483367919922,
              "depth": 25.549470901489258
            }
          },
          "indices": 12
        }
      ]
    },
    {
      "primitives": [
        {
          "mode": 4,
          "attributes": {
            "POSITION": 13,
            "NORMAL": 14
          },
          "extras": {
            "type": "SubdivGeometry",
            "parameters": {
              "width": 94.97897338867188,
              "height": 131.7483367919922,
              "depth": 25.549470901489258
            }
          },
          "indices": 15
        }
      ]
    },
    {
      "primitives": [
        {
          "mode": 4,
          "attributes": {
            "POSITION": 16,
            "NORMAL": 17
          },
          "extras": {
            "type": "SubdivGeometry",
            "parameters": {
              "width": 94.97897338867188,
              "height": 131.7483367919922,
              "depth": 25.549470901489258
            }
          },
          "indices": 18
        }
      ]
    },
    {
      "primitives": [
        {
          "mode": 4,
          "attributes": {
            "POSITION": 19,
            "NORMAL": 20
          },
          "extras": {
            "type": "SubdivGeometry",
            "parameters": {
              "width": 94.97897338867188,
              "height": 131.7483367919922,
              "depth": 25.549470901489258
            }
          },
          "indices": 21
        }
      ]
    },
    {
      "primitives": [
        {
          "mode": 4,
          "attributes": {
            "POSITION": 22,
            "NORMAL": 23
          },
          "extras": {
            "type": "SubdivGeometry",
            "parameters": {
              "width": 408.4266662597656,
              "height": 131.7483367919922,
              "depth": 81.42546558380127
            }
          },
          "indices": 24
        }
      ]
    },
    {
      "primitives": [
        {
          "mode": 4,
          "attributes": {
            "POSITION": 25,
            "NORMAL": 26
          },
          "extras": {
            "type": "SubdivGeometry",
            "parameters": {
              "width": 39.162940979003906,
              "height": 90.74124908447266,
              "depth": 73.79504013061523
            }
          },
          "indices": 27
        }
      ]
    },
    {
      "primitives": [
        {
          "mode": 4,
          "attributes": {
            "POSITION": 28,
            "NORMAL": 29
          },
          "extras": {
            "type": "SubdivGeometry",
            "parameters": {
              "width": 39.162940979003906,
              "height": 90.74124908447266,
              "depth": 73.79504013061523
            }
          },
          "indices": 30
        }
      ]
    }
  ],
  "extensions": {
    "KHR_lights_punctual": {
      "lights": [
        {
          "name": "Directional Light",
          "color": [
            1,
            1,
            1
          ],
          "intensity": 0.7,
          "type": "directional"
        }
      ]
    }
  },
  "cameras": [
    {
      "type": "orthographic",
      "orthographic": {
        "xmag": 11.407346953886089,
        "ymag": 5.352935137218875,
        "zfar": 100000,
        "znear": 0
      }
    }
  ],
  "extensionsUsed": [
    "KHR_lights_punctual"
  ]
}